<svg xmlns="http://www.w3.org/2000/svg" viewBox="0 0 77.57 9.19"><defs><style>.a{fill:#8e9090;}</style></defs><title>exoframe-air-2</title><path class="a" d="M11.87.43h3.45v1H13.15V4h2.1v1h-2.1V7.79h2.16v1H11.87ZM11.62.18V9h3.95V7.54H13.4V5.19h2.1V3.72H13.4V1.65h2.17V.18Z"/><path class="a" d="M19.34,2.44l.8-2h1.24L19.77,4.51l0,.09,0,.09,1.62,4.07H20.14l-.8-2-.23-.59-.23.59-.79,2H16.84l1.61-4.07,0-.09,0-.09L16.84.43h1.24l.79,2L19.1,3ZM20,.18l-.86,2.16L18.25.18H16.47L18.22,4.6,16.47,9h1.78l.85-2.17L20,9h1.78L20,4.6,21.75.18Z"/><path class="a" d="M25,.25c1.41,0,2.25.59,2.25,1.57V7.49c0,1.27-1.4,1.46-2.23,1.46s-2.24-.19-2.24-1.46V1.82c0-1,.83-1.57,2.23-1.57m0,7.72a.87.87,0,0,0,1-.89v-5a.89.89,0,0,0-1-.9.88.88,0,0,0-.94.89v5a.89.89,0,0,0,1,.9m0-8c-1.51,0-2.48.68-2.48,1.82V7.49c0,1.14,1,1.71,2.49,1.71s2.48-.56,2.48-1.71V1.82C27.55.68,26.57,0,25,0m0,7.72a.64.64,0,0,1-.7-.65v-5A.63.63,0,0,1,25,1.47a.65.65,0,0,1,.71.65v5a.63.63,0,0,1-.7.64"/><polygon class="a" points="28.87 0.18 28.87 9.01 30.65 9.01 30.65 5.19 32.38 5.19 32.38 3.72 30.65 3.72 30.65 1.65 32.44 1.65 32.44 0.18 28.87 0.18"/><path class="a" d="M36.75,7.4V6c0-.49-.14-.78-.59-.78h-.82V9H33.56V.18H37c1.47,0,1.5,1,1.5,2V2.4c0,.88,0,2-1.49,2.09,1.46.12,1.49,1.09,1.49,2V7.76A4.86,4.86,0,0,0,38.63,9H36.87a6.23,6.23,0,0,1-.12-1.61M35.34,1.65V3.72h.82c.45,0,.59-.28.59-.77V2.42c0-.49-.14-.77-.59-.77Z"/><path class="a" d="M42.31,1.4l.53,4.35H41.77ZM40.76.18,39.6,9h1.78l.21-1.79H43L43.25,9H45L43.85.18Z"/><polygon class="a" points="50.36 0.18 49.6 6.73 48.85 0.18 46.06 0.18 46.06 9.01 47.66 9.01 47.66 2.09 48.47 9.01 50.74 9.01 51.55 2.09 51.55 9.01 53.14 9.01 53.14 0.18 50.36 0.18"/><polygon class="a" points="54.5 0.18 54.5 9.01 58.45 9.01 58.45 7.54 56.28 7.54 56.28 5.19 58.39 5.19 58.39 3.72 56.28 3.72 56.28 1.65 58.45 1.65 58.45 0.18 54.5 0.18"/><path class="a" d="M4.79,3.2,7.92.38A1.39,1.39,0,0,1,8.38.13H.47A1.39,1.39,0,0,1,.92.38L4,3.2a.57.57,0,0,0,.74,0"/><path class="a" d="M2.93,4.22,0,1.58V7.52L2.93,4.89a.44.44,0,0,0,0-.67"/><path class="a" d="M5.92,4.22a.44.44,0,0,0,0,.67L8.84,7.52V1.58Z"/><path class="a" d="M7.93,8.72,4.79,5.9a.57.57,0,0,0-.74,0L.92,8.72A1.41,1.41,0,0,1,.47,9H8.38a1.41,1.41,0,0,1-.45-.25"/><polygon class="a" points="61.45 0.23 59.69 9.01 60.93 9.01 62.69 0.23 61.45 0.23"/><path class="a" d="M65.58,1.44l.53,4.33H65.05ZM64,.23,62.89,9h1.77l.21-1.78h1.42L66.52,9h1.76L67.12.23Z"/><rect class="a" x="69.37" y="0.23" width="1.77" height="8.78"/><path class="a" d="M74.3,1.7V3.75h.82c.45,0,.58-.28.58-.76V2.46c0-.49-.14-.76-.58-.76Zm1.4,5.72V6c0-.49-.14-.77-.58-.77H74.3V9H72.53V.23H76c1.46,0,1.49,1,1.49,2v.25c0,.87,0,1.94-1.48,2.08,1.45.12,1.48,1.08,1.48,1.94V7.77A4.82,4.82,0,0,0,77.57,9H75.82a6.23,6.23,0,0,1-.12-1.6"/></svg>