<svg id="Layer_1" data-name="Layer 1" xmlns="http://www.w3.org/2000/svg" viewBox="0 0 87.37 9.24"><defs><style>.cls-1{fill:#8e9090;}</style></defs><title>forged-carbon</title><polygon class="cls-1" points="12.83 0.18 12.83 9.06 14.62 9.06 14.62 5.22 16.36 5.22 16.36 3.74 14.62 3.74 14.62 1.66 16.42 1.66 16.42 0.18 12.83 0.18"/><path class="cls-1" d="M19.33,7.11a.65.65,0,0,0,.71.65.63.63,0,0,0,.71-.64v-5A.65.65,0,0,0,20,1.48a.63.63,0,0,0-.7.64Zm3.21.42c0,1.15-1,1.72-2.5,1.72s-2.5-.57-2.5-1.72V1.83C17.54.69,18.5,0,20,0s2.51.69,2.51,1.83Z"/><path class="cls-1" d="M25.65,1.66V3.74h.83c.45,0,.59-.28.59-.77V2.43c0-.49-.14-.77-.59-.77Zm1.42,5.78V6c0-.49-.14-.78-.59-.78h-.83V9.06H23.86V.18h3.49c1.48,0,1.51,1.05,1.51,2v.26c0,.88,0,2-1.5,2.1,1.47.12,1.5,1.09,1.5,2V7.81A4.91,4.91,0,0,0,29,9.06H27.19a6.25,6.25,0,0,1-.12-1.62"/><path class="cls-1" d="M34.42,9.06l-.12-.65a1.83,1.83,0,0,1-1.64.84c-1.52,0-2.5-.57-2.5-1.72V1.83c0-1.15,1-1.83,2.49-1.83s2.51.69,2.51,1.83V3.38H33.36V2.13a.65.65,0,0,0-.72-.65.63.63,0,0,0-.7.64v5a.65.65,0,0,0,.71.65.63.63,0,0,0,.71-.64V5.52h-.72V4h2.51v5Z"/><polygon class="cls-1" points="36.48 0.18 36.48 9.06 40.45 9.06 40.45 7.58 38.28 7.58 38.28 5.22 40.39 5.22 40.39 3.74 38.28 3.74 38.28 1.66 40.45 1.66 40.45 0.18 36.48 0.18"/><path class="cls-1" d="M43.47,1.66V7.58h.83c.45,0,.59-.28.59-.77V2.43c0-.49-.14-.77-.59-.77ZM41.68.18h3.48c1.48,0,1.51,1.05,1.51,2V7.09c0,.92,0,2-1.51,2H41.68Z"/><path class="cls-1" d="M52.62,7.11a.65.65,0,0,0,.71.65A.63.63,0,0,0,54,7.12V5.21h1.79V7.53c0,1.15-1,1.72-2.5,1.72s-2.5-.57-2.5-1.72V1.83C50.83.69,51.8,0,53.32,0s2.51.69,2.51,1.83V3.74H54V2.13a.65.65,0,0,0-.72-.65.63.63,0,0,0-.7.64Z"/><path class="cls-1" d="M59.52,1.41l.54,4.38H59ZM58,.18,56.8,9.06h1.79l.21-1.8h1.44l.22,1.8h1.78L61.07.18Z"/><path class="cls-1" d="M65.1,1.66V3.74h.83c.45,0,.59-.28.59-.77V2.43c0-.49-.14-.77-.59-.77Zm1.42,5.78V6c0-.49-.14-.78-.59-.78H65.1V9.06H63.31V.18H66.8c1.48,0,1.51,1.05,1.51,2v.26c0,.88,0,2-1.5,2.1,1.47.12,1.5,1.09,1.5,2V7.81a4.91,4.91,0,0,0,.1,1.25H66.64a6.25,6.25,0,0,1-.12-1.62"/><path class="cls-1" d="M72.3,7.58c.45,0,.59-.28.59-.77V6c0-.49-.14-.78-.59-.78h-.83V7.58Zm-.83-5.92V3.74h.83c.45,0,.59-.28.59-.77V2.43c0-.49-.14-.77-.59-.77ZM69.68.18h3.48c1.48,0,1.51,1.05,1.51,2v.26c0,.88,0,2-1.5,2.1,1.47.12,1.5,1.09,1.5,2v.61c0,.92,0,2-1.51,2H69.68Z"/><path class="cls-1" d="M77.72,7.11a.65.65,0,0,0,.71.65.63.63,0,0,0,.71-.64v-5a.65.65,0,0,0-.72-.65.63.63,0,0,0-.7.64Zm3.21.42c0,1.15-1,1.72-2.5,1.72s-2.5-.57-2.5-1.72V1.83c0-1.15,1-1.83,2.49-1.83s2.51.69,2.51,1.83Z"/><polygon class="cls-1" points="85.76 0.18 85.76 6.78 84.94 0.18 82.25 0.18 82.25 9.06 83.86 9.06 83.86 2.1 84.72 9.06 87.37 9.06 87.37 0.18 85.76 0.18"/><path class="cls-1" d="M4.71,6.65h-.4V6.46h.4Zm.33,0V6.38A.19.19,0,0,0,5,6.21a.19.19,0,0,0-.13,0H4V7.26h.33V6.87h.26l.14.39h.34l-.14-.4A.21.21,0,0,0,5,6.64"/><polygon class="cls-1" points="1.52 6.17 1.52 7.26 1.85 7.26 1.85 6.83 2.46 6.83 2.46 6.6 1.85 6.6 1.85 6.46 2.46 6.46 2.46 6.17 1.52 6.17"/><path class="cls-1" d="M3.44,7H3V6.46h.44Zm.27.19A.24.24,0,0,0,3.77,7V6.45a.25.25,0,0,0-.09-.21.45.45,0,0,0-.25-.07H3a.27.27,0,0,0-.24.12.34.34,0,0,0-.05.19V7a.38.38,0,0,0,.08.24.22.22,0,0,0,.15.06h.6a.24.24,0,0,0,.21-.1"/><path class="cls-1" d="M6.32,6.46V6.17H5.54a.27.27,0,0,0-.24.12.33.33,0,0,0-.05.19V7a.38.38,0,0,0,.08.25.22.22,0,0,0,.15.06H6a.28.28,0,0,0,.24-.08A.23.23,0,0,0,6.33,7V6.61H6V7H5.58V6.46Z"/><polygon class="cls-1" points="6.55 6.17 6.55 7.26 7.49 7.26 7.49 6.97 6.88 6.97 6.88 6.83 7.49 6.83 7.49 6.6 6.88 6.6 6.88 6.46 7.49 6.46 7.49 6.17 6.55 6.17"/><path class="cls-1" d="M8.44,7H8V6.46h.42Zm.27.19A.24.24,0,0,0,8.77,7V6.45a.26.26,0,0,0-.09-.21.44.44,0,0,0-.25-.07H7.69V7.26H8.5a.24.24,0,0,0,.21-.1"/><polygon class="cls-1" points="4.42 3.47 4.42 3.73 4.88 3.73 5.07 3.92 5.26 3.73 5.72 3.73 5.72 3.47 4.42 3.47"/><path class="cls-1" d="M4.42,4.22l.11.11v.21a.23.23,0,0,0,.23.23h.62a.23.23,0,0,0,.23-.23V4.33l.11-.11V4H5.29v.46a.07.07,0,0,1-.07.07H4.93a.07.07,0,0,1-.07-.07V4H4.42Z"/><path class="cls-1" d="M9,8.6H1.14L.48,7.46,4.41.65H5.73L9.66,7.46Zm1.11-1.25L6,.32A.22.22,0,0,0,5.86.21H4.28a.22.22,0,0,0-.19.11L0,7.35a.23.23,0,0,0,0,.22L.82,8.94A.22.22,0,0,0,1,9H9.13a.22.22,0,0,0,.19-.11l.79-1.36a.22.22,0,0,0,0-.22"/><path class="cls-1" d="M6.27,4.83l-.94.54a.2.2,0,0,0,.1.37l.1,0,.94-.54.93.54.1,0a.2.2,0,0,0,.1-.36l-.93-.54V3.74a.19.19,0,1,0-.39,0Z"/><path class="cls-1" d="M3.67,5.17l.93.54.1,0a.2.2,0,0,0,.1-.36l-.93-.54V3.74a.2.2,0,0,0-.39,0V4.83l-.93.54a.2.2,0,0,0,.1.36l.1,0Z"/><path class="cls-1" d="M5.26,1.31a.2.2,0,0,0-.39,0V2.4l-.93.54A.2.2,0,0,0,4,3.3l.1,0,.93-.54L6,3.27l.1,0a.2.2,0,0,0,.1-.36L5.26,2.4Z"/><path class="cls-1" d="M4.79,7.85H4.55V7.74h.23Zm.19,0V7.69a.11.11,0,0,0-.05-.1.12.12,0,0,0-.07,0H4.36v.63h.19V8h.15l.08.23H5L4.9,8A.12.12,0,0,0,5,7.85"/><path class="cls-1" d="M3.09,7.57H3l0,0a.13.13,0,0,0,0,.05.26.26,0,0,0,0,.08V8a.26.26,0,0,0,0,.08.13.13,0,0,0,0,.05l0,0h.5V8H3.15V7.74h.38V7.57H3.09"/><path class="cls-1" d="M4.05,7.82H3.85V7.74h.21Zm.19-.14v0l0,0-.06,0H3.74l-.06,0,0,0v.56h.2V8h.21v.25h.2V7.76s0,0,0-.05a.18.18,0,0,0,0,0"/><path class="cls-1" d="M5.5,7.82H5.3V7.74H5.5ZM5.5,8H5.3V8H5.5Zm.1-.46H5.1v.63h.51l.05,0,0,0a.22.22,0,0,0,0-.06V8a.19.19,0,0,0,0,0v0l0,0,0,0,0,0a.13.13,0,0,0,0-.06V7.71a.12.12,0,0,0,0-.11l0,0"/><path class="cls-1" d="M6.24,8H6V7.74h.22Zm.15-.43-.06,0H5.9l0,0a.11.11,0,0,0,0,.05.23.23,0,0,0,0,.08V8a.24.24,0,0,0,0,.08.12.12,0,0,0,0,.05l0,0h.43l.06,0a.12.12,0,0,0,0-.05.27.27,0,0,0,0-.08V7.74a.27.27,0,0,0,0-.08.12.12,0,0,0,0-.05"/><polygon class="cls-1" points="6.99 7.57 6.99 7.88 6.81 7.57 6.56 7.57 6.56 8.21 6.76 8.21 6.76 7.82 7 8.21 7.19 8.21 7.19 7.57 6.99 7.57"/></svg>