<svg xmlns="http://www.w3.org/2000/svg" viewBox="0 0 78.5 9.21"><defs><style>.a{fill:#8e9090;}</style></defs><title>magnesium-20</title><polygon class="a" points="16.49 0.18 15.73 6.74 14.98 0.18 12.18 0.18 12.18 9.03 13.79 9.03 13.79 2.09 14.6 9.03 16.87 9.03 17.68 2.09 17.68 9.03 19.27 9.03 19.27 0.18 16.49 0.18"/><path class="a" d="M23,1.4l.53,4.36H22.51ZM21.5.18,20.34,9h1.78l.21-1.79h1.43L24,9h1.77L24.6.18Z"/><path class="a" d="M30.95,9l-.12-.65a1.82,1.82,0,0,1-1.64.83c-1.52,0-2.49-.57-2.49-1.71V1.83c0-1.14,1-1.83,2.48-1.83s2.5.68,2.5,1.83V3.36H29.9V2.13a.65.65,0,0,0-.71-.65.63.63,0,0,0-.69.64v5a.64.64,0,0,0,.7.65.63.63,0,0,0,.71-.64V5.5h-.71V4h2.5V9Z"/><polygon class="a" points="36.48 0.18 36.48 6.75 35.67 0.18 32.99 0.18 32.99 9.03 34.59 9.03 34.59 2.09 35.45 9.03 38.09 9.03 38.09 0.18 36.48 0.18"/><polygon class="a" points="39.42 0.18 39.42 9.03 43.37 9.03 43.37 7.55 41.2 7.55 41.2 5.2 43.3 5.2 43.3 3.73 41.2 3.73 41.2 1.66 43.37 1.66 43.37 0.18 39.42 0.18"/><path class="a" d="M49.47,7.5c0,1.14-1,1.71-2.5,1.71s-2.48-.57-2.48-1.71V5.81h1.78V7.09a.63.63,0,0,0,.69.64.65.65,0,0,0,.71-.65V6.35c0-1.44-3.19-1.09-3.19-3.37V1.83C44.49.68,45.45,0,47,0s2.5.68,2.5,1.83V3.12H47.69v-1A.65.65,0,0,0,47,1.47a.63.63,0,0,0-.69.64v.52c0,1.57,3.19.77,3.19,3.46Z"/><rect class="a" x="50.72" y="0.18" width="1.78" height="8.84"/><path class="a" d="M53.79,7.5V.18h1.78v6.9a.64.64,0,0,0,.71.65.63.63,0,0,0,.7-.64V.18h1.78V7.5c0,1.14-1,1.71-2.49,1.71s-2.49-.57-2.49-1.71"/><polygon class="a" points="64.38 0.18 63.62 6.74 62.87 0.18 60.07 0.18 60.07 9.03 61.67 9.03 61.67 2.09 62.48 9.03 64.76 9.03 65.57 2.09 65.57 9.03 67.16 9.03 67.16 0.18 64.38 0.18"/><path class="a" d="M5.79,4V5.77a.26.26,0,0,0,.3.3.79.79,0,0,0,.48-.18v-2a.73.73,0,0,0-.48-.19.26.26,0,0,0-.3.3"/><path class="a" d="M8.34,1.59l-1-1h1ZM7.08,6.92a.7.7,0,0,1-.8.8H6c-.49,0-.72-.23-.72-.72V6.8h.48V7c0,.18.08.29.27.29H6.3c.18,0,.27-.1.27-.29V6.31a.9.9,0,0,1-.64.25c-.44,0-.66-.29-.66-.73V3.95c0-.44.22-.73.66-.73a.89.89,0,0,1,.64.27V3.26h.52Zm-2.4,0H4.15V3L3.5,6.94H2.94L2.28,3V6.94H1.76V2.17h.86l.61,3.76.61-3.76h.85ZM0,9H8.84V.18H0Z"/><path class="a" d="M71.1,0h-.54a1.46,1.46,0,0,0-1.64,1.66V3.3h1.3V1.72c0-.36.17-.52.51-.52h.17c.33,0,.5.17.5.52V3a1.22,1.22,0,0,1-.36.85L69.6,5.62a2.55,2.55,0,0,0-.7,1.77V9h3.85V7.76h-2.5V7.44a1.34,1.34,0,0,1,.37-1l1.44-1.81a2.49,2.49,0,0,0,.69-1.76V1.66A1.46,1.46,0,0,0,71.1,0m0,.22a1.25,1.25,0,0,1,1.42,1.43V2.89a2.27,2.27,0,0,1-.64,1.62L70.45,6.32A1.56,1.56,0,0,0,70,7.44V8h2.5v.79h-3.4V7.39a2.34,2.34,0,0,1,.65-1.63l1.44-1.81a1.43,1.43,0,0,0,.4-1V1.72A.67.67,0,0,0,70.9,1h-.17a.67.67,0,0,0-.73.74V3.08h-.86V1.66A1.25,1.25,0,0,1,70.57.22Z"/><path class="a" d="M73.2,8H74v.81H73.2ZM73,9h1.29V7.74H73Z"/><path class="a" d="M76.38,7.87a.45.45,0,0,1-.52-.52V1.72a.46.46,0,0,1,.52-.52h.26c.34,0,.51.17.51.52V7.35c0,.36-.17.52-.51.52ZM76.84,0h-.68a1.46,1.46,0,0,0-1.66,1.66V7.41a1.46,1.46,0,0,0,1.66,1.66h.68A1.46,1.46,0,0,0,78.5,7.41V1.66A1.46,1.46,0,0,0,76.84,0m-.46,8.09h.26a.66.66,0,0,0,.73-.74V1.72A.67.67,0,0,0,76.64,1h-.26a.67.67,0,0,0-.74.74V7.35a.67.67,0,0,0,.74.74M76.84.22c1,0,1.43.44,1.43,1.43V7.41c0,1-.44,1.43-1.43,1.43h-.68c-1,0-1.43-.44-1.43-1.43V1.66c0-1,.44-1.43,1.43-1.43Z"/></svg>