<svg xmlns="http://www.w3.org/2000/svg" viewBox="0 0 73.72 9.2"><defs><style>.a{fill:#8e9090;}</style></defs><title>vaporlite-30</title><path class="a" d="M65,3a1.24,1.24,0,0,1-.91,1.23l-.54.2.54.2A1.23,1.23,0,0,1,65,5.85V7.34c0,1.24-1.36,1.42-2.16,1.42s-2.16-.18-2.16-1.42V5.84H62v1.1a.82.82,0,0,0,.88.83A.81.81,0,0,0,63.74,7V5.77a.84.84,0,0,0-.9-.84H62.4V4h.46a.82.82,0,0,0,.89-.82V2.21a.83.83,0,0,0-.9-.84A.81.81,0,0,0,62,2.2v.9H60.69V1.92c0-1,.81-1.53,2.15-1.53S65,1,65,1.92ZM62.85.18c-1.45,0-2.37.65-2.37,1.75V3.31h1.7V2.2a.6.6,0,0,1,.66-.61.62.62,0,0,1,.68.62v.94a.61.61,0,0,1-.67.61h-.67V5.15h.66a.62.62,0,0,1,.68.62V7a.6.6,0,0,1-.67.61.61.61,0,0,1-.67-.62V5.63h-1.7V7.34c0,1.09.93,1.63,2.38,1.63s2.38-.54,2.38-1.63V5.85a1.44,1.44,0,0,0-1-1.42,1.45,1.45,0,0,0,1-1.43V1.92C65.23.83,64.3.18,62.85.18"/><path class="a" d="M66.44,7.26h1.28V8.59H66.44ZM66.23,8.8h1.7V7h-1.7Z"/><path class="a" d="M73.51,7.34c0,1.24-1.36,1.42-2.17,1.42s-2.17-.18-2.17-1.42V1.92c0-1,.81-1.53,2.16-1.53s2.17.57,2.17,1.53ZM71.34.18C69.89.18,69,.83,69,1.92V7.34C69,8.43,69.9,9,71.35,9s2.38-.54,2.38-1.63V1.92C73.72.83,72.8.18,71.34.18"/><path class="a" d="M72,7a.6.6,0,0,1-.67.61.61.61,0,0,1-.67-.62V2.2a.6.6,0,0,1,.66-.61.62.62,0,0,1,.68.62Zm-.68-5.58a.81.81,0,0,0-.88.83V6.94a.82.82,0,0,0,.89.83A.81.81,0,0,0,72.23,7V2.21a.83.83,0,0,0-.9-.84"/><path class="a" d="M7.09,8.37H2.81L.67,4.67,2.81,1H7.09l2.14,3.7ZM7.61.55A.5.5,0,0,0,7.19.31H2.72A.5.5,0,0,0,2.3.55L.06,4.42a.51.51,0,0,0,0,.49L2.3,8.78A.5.5,0,0,0,2.72,9H7.19a.5.5,0,0,0,.42-.24L9.84,4.91a.5.5,0,0,0,0-.49Z"/><path class="a" d="M6.5,3.73H5.4L5,4.18l-.44-.44H3.4V3.12H6.5Zm0,1.16-.27.27v.51a.54.54,0,0,1-.55.55H4.21a.55.55,0,0,1-.55-.55V5.16L3.4,4.9V4.34h1V5.43a.17.17,0,0,0,.18.17h.68a.17.17,0,0,0,.17-.17V4.34h1Zm0-3.19h-3a.34.34,0,0,0-.29.17L1.63,4.5a.35.35,0,0,0,0,.33L3.15,7.46a.34.34,0,0,0,.29.17h3a.34.34,0,0,0,.29-.17L8.28,4.83a.34.34,0,0,0,0-.33L6.76,1.87a.34.34,0,0,0-.29-.17"/><polygon class="a" points="14.66 0.18 13.97 7.55 13.28 0.18 11.38 0.18 12.43 9.02 15.52 9.02 16.56 0.18 14.66 0.18"/><path class="a" d="M19.5,1.4,20,5.75H19ZM18,.18,16.79,9h1.78l.21-1.79h1.43L20.44,9h1.77L21,.18Z"/><path class="a" d="M26.44,3.48c0,.49-.14.78-.59.78H25V1.65h.82c.45,0,.59.28.59.77Zm.28-3.3H23.25V9H25V5.73h1.69c1.47,0,1.5-1,1.5-2V2.15c0-.92,0-2-1.5-2"/><path class="a" d="M32.61,7.08a.63.63,0,0,1-.7.64.64.64,0,0,1-.7-.65v-5a.63.63,0,0,1,.69-.64.65.65,0,0,1,.71.65ZM31.89,0c-1.52,0-2.48.68-2.48,1.83V7.49c0,1.14,1,1.71,2.48,1.71s2.49-.57,2.49-1.71V1.83c0-1.14-1-1.83-2.5-1.83"/><path class="a" d="M38.88,3c0,.49-.14.77-.59.77h-.82V1.65h.82c.45,0,.59.28.59.77Zm1.78,3.49c0-.86,0-1.84-1.49-2,1.46-.14,1.49-1.22,1.49-2.09V2.14c0-.92,0-2-1.5-2H35.69V9h1.78V5.2h.82c.45,0,.59.29.59.78V7.4A6.19,6.19,0,0,0,39,9h1.76a4.87,4.87,0,0,1-.1-1.25Z"/><polygon class="a" points="42.01 0.18 42.01 9.02 45.71 9.02 45.71 7.54 43.79 7.54 43.79 0.18 42.01 0.18"/><rect class="a" x="46.77" y="0.18" width="1.78" height="8.83"/><polygon class="a" points="49.61 0.18 49.61 1.65 50.8 1.65 50.8 9.02 52.58 9.02 52.58 1.65 53.79 1.65 53.79 0.18 49.61 0.18"/><polygon class="a" points="54.85 0.18 54.85 9.02 58.8 9.02 58.8 7.54 56.63 7.54 56.63 5.2 58.73 5.2 58.73 3.72 56.63 3.72 56.63 1.65 58.8 1.65 58.8 0.18 54.85 0.18"/></svg>